# xmcd
#
# Track frame offsets:
#	150
#	14266
#	30025
#	44601
#	63554
#	82259
#	99554
#	121946
#	138230
#	154511
#	164133
#
# Disc length: 2409 seconds
#
# Revision: 1
# Processed by: cddbd v1.5.2PL0 Copyright (c) Steve Scherf et al.
# Submitted via: audiograbber 1.83.01
#
DISCID=8b09670b
DTITLE=Riversvers - Ri
DYEAR=1900
DGENRE=
TTITLE0=great day
TTITLE1=the son of a preacherman
TTITLE2=operator
TTITLE3=thunderstruck
TTITLE4=wake me up
TTITLE5=lopov Jack
TTITLE6=just a closer walk with thee
TTITLE7=mr. Sandman/ bei mir bist du schoen
TTITLE8=in the upper room
TTITLE9=ezekiel
TTITLE10=a nigdje vala
EXTD=
EXTT0=
EXTT1=
EXTT2=
EXTT3=
EXTT4=
EXTT5=
EXTT6=
EXTT7=
EXTT8=
EXTT9=
EXTT10=
PLAYORDER=
